<?xml version="1.0" encoding="utf-8"?>
<!-- Generator: Adobe Illustrator 25.2.1, SVG Export Plug-In . SVG Version: 6.00 Build 0)  -->
<svg version="1.1" id="圖層_1" xmlns="http://www.w3.org/2000/svg" xmlns:xlink="http://www.w3.org/1999/xlink" x="0px" y="0px"
	 viewBox="0 0 1024 768" style="enable-background:new 0 0 1024 768;" xml:space="preserve">
<style type="text/css">
	.st0{clip-path:url(#SVGID_2_);}
	.st1{fill:none;stroke:#FFFFFF;stroke-width:0.6483;stroke-miterlimit:10;}
	.st2{opacity:0.2;fill:#C8C9CB;stroke:#FFFFFF;stroke-width:0.6483;stroke-miterlimit:10;enable-background:new    ;}
	.st3{clip-path:url(#SVGID_4_);}
	.st4{fill:#DDDEE0;}
	.st5{opacity:0.5;fill:#C8C9CB;enable-background:new    ;}
	.st6{fill:none;}
	.st7{fill:#FFFFFF;}
	.st8{opacity:0.1;fill:#FFFFFF;stroke:#FFFFFF;stroke-width:0.6386;stroke-miterlimit:10;enable-background:new    ;}
</style>
<g>
	<g>
		<g>
			<g>
				<g>
					<defs>
						<rect id="SVGID_1_" y="-1266.6" width="1694.7" height="808.5"/>
					</defs>
					<clipPath id="SVGID_2_">
						<use xlink:href="#SVGID_1_"  style="overflow:visible;"/>
					</clipPath>
					<g class="st0">
						<polygon class="st1" points="172.2,-589.3 651.6,-866.1 1131,-589.3 1131,-35.8 651.6,241 172.2,-35.8 						"/>
						<polygon class="st1" points="172.2,-450.7 651.6,-727.5 1131,-450.7 1131,102.8 651.6,379.6 172.2,102.8 						"/>
						<polygon class="st2" points="961.3,-756.6 1398.7,-1009.1 1836,-756.6 1836,-251.6 1398.7,0.9 961.3,-251.6 						"/>
						<polygon class="st2" points="523.6,-296.1 961,-548.6 1398.3,-296.1 1398.3,208.9 961,461.4 523.6,208.9 						"/>
					</g>
				</g>
			</g>
		</g>
	</g>
</g>
<g>
	<g>
		<g>
			<g>
				<g>
					<defs>
						<rect id="SVGID_3_" x="-0.5" y="-0.5" width="1024" height="768"/>
					</defs>
					<clipPath id="SVGID_4_">
						<use xlink:href="#SVGID_3_"  style="overflow:visible;"/>
					</clipPath>
					<g class="st3">
						<rect x="74" y="-116.7" class="st4" width="1646.3" height="1046.8"/>
						<polygon class="st2" points="961.3,57.4 1398.7,-195.1 1836,57.4 1836,562.4 1398.7,814.9 961.3,562.4 						"/>
						<polygon class="st2" points="523.6,517.9 961,265.4 1398.3,517.9 1398.3,1022.9 961,1275.4 523.6,1022.9 						"/>
						<polygon class="st2" points="-344.1,-105.8 93.3,-358.3 530.6,-105.8 530.6,399.2 93.3,651.7 -344.1,399.2 						"/>
						<polygon class="st5" points="-383.1,-291.1 74,-543.6 531,-291.1 531,213.9 74,466.4 -383.1,213.9 						"/>
						<polygon class="st5" points="-383.1,-608.3 74,-860.8 531,-608.3 531,-103.3 74,149.2 -383.1,-103.3 						"/>
						<rect y="-39.6" class="st6" width="1694.7" height="808.5"/>
						<rect x="-40" y="-45" class="st7" width="1071" height="66"/>
					</g>
				</g>
			</g>
		</g>
		<polygon class="st8" points="74,22 313.8,22 314.7,331.9 74,465.9 		"/>
	</g>
</g>
</svg>
