<?xml version="1.0" encoding="utf-8"?>
<!-- Generator: Adobe Illustrator 25.2.1, SVG Export Plug-In . SVG Version: 6.00 Build 0)  -->
<svg version="1.1" id="Capa_1" xmlns="http://www.w3.org/2000/svg" xmlns:xlink="http://www.w3.org/1999/xlink" x="0px" y="0px"
	 viewBox="0 0 100 100" style="enable-background:new 0 0 100 100;" xml:space="preserve">
<style type="text/css">
	.st0{fill:#333030;}
	.st1{fill:#B4171D;}
	.st2{fill:#99101A;}
	.st3{fill:#DBD5D5;}
	.st4{fill:#161313;}
	.st5{fill:#D1AB86;}
	.st6{fill:#FFE2C2;}
	.st7{fill:#FFF8F8;}
	.st8{fill:#0C0A0A;}
	.st9{fill:#916826;}
	.st10{fill:#F27320;}
	.st11{fill:#221E1F;}
	.st12{fill:#4F4F51;}
</style>
<g>
	<g>
		<path class="st0" d="M86.9,53.5c0-2.5-2.4-4.2-5.7-5.2l0.2-0.3l-2.2-1L79,47.3l-0.7-0.2v-2c0.8-1,1.5-2.3,2-3.6
			c0.1,0.3,0.2,0.5,0.4,0.5c0.5,0.1,1.2-0.8,1.5-2.2c0.3-1.4,0.2-2.6-0.3-2.7c-0.2-0.1-0.5,0.1-0.7,0.4c0,0,1.3-8.2-2.9-6.7
			c1-4.9-13.8-4.7-12,6.7c-0.2-0.3-0.5-0.4-0.7-0.4c-0.5,0.1-0.7,1.4-0.4,2.7c0.3,1.4,1,2.3,1.5,2.2c0.2-0.1,0.3-0.2,0.4-0.5
			c0.5,1.3,1.2,2.5,2,3.6V47l-0.7,0.2l-0.1-0.4l-1.2,0.5c-1.5-1.1-5.6-1.8-5.6-1.8l-1-0.3l-0.8-0.4l-2.1-1.6v0
			c-0.4-0.4-0.7-0.8-0.8-1.6l-0.4,0.2v-1.7c0.9-1.1,1.7-2.4,2.3-3.9c0.5,0,1.5-0.8,1.9-1.9c0.4-1.2,0.4-2.4-0.1-2.5
			c-0.2-0.1-0.4,0-0.6,0.1c0.1-0.8,0.3-1.8,0.4-3.2c0.1-1.1-0.9-4.8-1.4-5.3c-3.6-3.7-7.9-3-10.3-2.4c-2.8,0.7-5.1,3.4-5.7,5.7
			c-0.6,2.1-0.3,4.3-0.1,5.2c-0.2-0.2-0.4-0.2-0.6-0.2c-0.5,0.2-0.6,1.3-0.1,2.5c0.4,1.2,1.5,2,2,1.9c0.6,1.5,1.3,2.8,2.2,3.9v1.7
			l-0.4-0.2c0,0.8-0.4,1.3-0.8,1.7L43.4,45L43,45.2l-1.5,0.4c0,0-5.1,0.8-6,2.2c-0.2,0.1-0.4,0.5-0.6,0.9l-0.1,0
			c-0.4-1.6-0.4-3.2,0.5-5c1.4-2.3,1.9-4.8,1.6-6.8c-0.6-3-1.8-5.4-3.7-7c-0.3-2-1.5-3.1-3.8-3.1c-5.9,0.4-9.1,3.9-10.3,9.5
			c-0.4,2,0.1,4.5,1.6,6.8c1,1.9,1,3.6,0.4,5.4l-0.5,0.3l0.3,0.4c-0.1,0.2-0.2,0.4-0.3,0.7c-2,1.5-4.1,2.4-4.5,5.1L16,57.6h10.2h4.2
			h3.5c-0.1,2.5,0,4.6,0.1,4.6c0.3,0,12.9,0,15.4,0c3.2,0,19.5,0,19.8,0c0.1,0,0.2-2.1,0.1-4.7h2.4h4.6h11L86.9,53.5z"/>
	</g>
	<g>
		<g>
			<path class="st1" d="M90.1,50c0,22.1-17.9,40.1-40.1,40.1C27.9,90.1,9.9,72.1,9.9,50C9.9,27.9,27.9,9.9,50,9.9
				C72.1,9.9,90.1,27.9,90.1,50z"/>
		</g>
		<g>
			<path class="st2" d="M90.1,50c0-0.1,0-0.3,0-0.4c-3.6-3.6-10.9-10.9-11-11c-0.3-0.4-0.7-0.7-1.2-0.8c-0.1-0.1-0.2-0.2-0.3-0.3
				c-0.2-0.2-0.4-0.4-0.6-0.6c-0.2-0.2-0.4-0.4-0.6-0.6c-1.6-2.3-8.1-2.1-10.7,2.2c-0.1-0.1-7.2-7.2-7.4-7.4
				c-0.1-0.1-0.1-0.1-0.2-0.2c-0.1-0.1-0.3-0.3-0.4-0.4c-0.1-0.1-0.1-0.1-0.2-0.2c-3.6-3.7-7.9-3-10.3-2.4c-2.8,0.7-5.1,3.4-5.7,5.7
				c-0.6,2.1-0.3,4.3-0.1,5.2c-0.2-0.2-0.4-0.2-0.6-0.2c-0.5,0.2-0.6,1.3-0.1,2.5c0.2,0.7,0.7,1.3,1.2,1.6c0.2,0.2,0.4,0.4,0.6,0.6
				c0.2,0.2,0.4,0.4,0.6,0.6c0,0,0,0,0,0.1c0.5,1.1,1.1,2.1,1.8,3V49l-0.3-0.2c0,0-0.1,0-0.1-0.1c-0.2-0.2-0.4-0.4-0.6-0.6
				c-0.2-0.2-0.4-0.4-0.6-0.6C43.2,47.3,31.8,36,31.6,35.8c-0.2-0.2-0.4-0.4-0.6-0.6c-0.6-0.9-1.6-1.3-3.2-1.3
				c-5.9,0.4-9.1,3.9-10.3,9.5c-0.4,2,0.1,4.5,1.6,6.8c1,1.9,1,3.6,0.4,5.4l-0.5,0.3l0.3,0.4c-0.1,0.2-0.2,0.4-0.3,0.7
				c-2,1.5-4.1,2.4-4.5,5.1l-0.2,2.8l24.3,23.7c3.6,1.1,7.4,1.6,11.4,1.6C72.1,90.1,90.1,72.1,90.1,50z"/>
		</g>
		<g>
			<g>
				<g>
					<g>
						<polygon class="st3" points="30.6,54.4 22.4,54.2 21.5,54.5 21.2,54.7 21.3,54.9 23.8,62.7 24.6,64.8 28.8,64.8 29.2,62.8 
							31.4,55 31.5,54.6 						"/>
					</g>
					<g>
						<path class="st4" d="M21.3,54.9c-2.3,3-6,3.4-6.7,7.1l-0.2,2.8h10.2l-0.7-2.1L21.3,54.9z"/>
					</g>
					<g>
						<path class="st4" d="M28.8,64.8h9.8L38.4,62c-0.5-2.5-3.3-3.7-7-7l-2.2,7.9L28.8,64.8z"/>
					</g>
					<g>
						<path class="st5" d="M29,50.6h-0.8h-4.3c-0.9,0-1.6,0.6-1.6,1.4v3.6c0,0.8,0.7,1.4,1.6,1.4H29c0.8,0,1.4-0.5,1.6-1.1
							c0,0,0,0,0,0v-0.3v-0.1V52C30.6,51.3,29.9,50.6,29,50.6z"/>
					</g>
					<g>
						<path class="st6" d="M34,43.9c-0.2-0.1-0.4,0.1-0.6,0.4c0-0.1,0-0.3,0-0.4c0-4.5-3.1-8.2-6.9-8.2c-3.8,0-6.9,3.7-6.9,8.2
							c0,0.1,0,0.3,0,0.4c-0.2-0.3-0.4-0.4-0.6-0.4c-0.5,0.1-0.6,1.4-0.3,2.8c0.3,1.4,0.9,2.4,1.4,2.3c0.2-0.1,0.3-0.2,0.4-0.5
							c1.2,3.4,3.4,6.5,6,6.5s4.9-3.1,6-6.5c0.1,0.3,0.2,0.5,0.4,0.5c0.5,0.1,1.1-0.9,1.4-2.3C34.6,45.4,34.5,44.1,34,43.9z"/>
					</g>
					<g>
						<path class="st7" d="M22.3,54.6c0,0,0.1,1.3,2.5,2c2.3,0.7,0.8,2.3,0.8,2.3l-1.8,0.4l-1.1-2.1l-0.5-1.6L22.3,54.6z"/>
					</g>
					<g>
						<path class="st7" d="M30.7,54.8c0,0-0.1,1.3-2.5,2c-2.3,0.7-0.8,2.3-0.8,2.3l1.8,0.4l1.1-2.1l0.5-1.6L30.7,54.8z"/>
					</g>
					<g>
						<polygon class="st0" points="21.6,54.4 19.1,55.9 23.8,62.7 						"/>
					</g>
					<g>
						<polygon class="st0" points="31.4,54.4 34,56.3 29.2,62.8 						"/>
					</g>
					<g>
						<g>
							<polygon class="st8" points="26.2,59.8 24.9,64.8 28.4,64.8 26.9,59.8 							"/>
						</g>
						<g>
							<polygon class="st8" points="25.5,57 27.6,57 27.9,58.5 27.5,60 25.6,60 25.1,58.6 							"/>
						</g>
					</g>
					<g>
						<path class="st8" d="M33.8,50.8c1.4-2.3,1.9-4.8,1.6-6.8c-0.6-3-1.8-5.4-3.7-7c-0.3-2-1.5-3.1-3.8-3.1
							c-5.9,0.4-9.1,3.9-10.3,9.5c-0.4,2,0.1,4.5,1.6,6.8c1.6,3.1,0.6,5.4-0.9,8.6c3.8-1.2,6.3-2.5,5.5-4.1
							c-2.1-4.8-3.2-9.4-0.1-13.4c1,0,2-0.4,3-1.4c-0.3,1.3-1.1,2.1-2.2,2.7c1.4-0.1,2.5-1.1,3.4-2.7c0.1,2.2-1.5,3.2-3.5,3.7
							c2.2,0,3.9-0.4,5.2-1.3c2.7,4,1.5,8.4-0.5,12.9c-0.8,1.6,1.7,2.9,5.5,4.1C33.2,56.1,32.2,53.8,33.8,50.8z"/>
					</g>
				</g>
			</g>
			<g>
				<g>
					<g>
						<polygon class="st3" points="76.6,54.3 67.7,54.1 66.7,54.4 66.4,54.6 66.5,54.8 69.2,62.6 70,64.7 74.6,64.7 75,62.7 
							77.4,54.8 77.5,54.5 						"/>
					</g>
					<g>
						<path class="st4" d="M66.5,54.8c-4.2,0.8-7.5,2.7-7.5,5.8l-0.3,4H70l-0.8-2.1L66.5,54.8z"/>
					</g>
					<g>
						<path class="st4" d="M74.6,64.7h11l-0.3-4c0-2.9-3.5-4.9-7.9-5.8L75,62.7L74.6,64.7z"/>
					</g>
					<g>
						<path class="st5" d="M74.9,50.8H74h-4.7c-1,0-1.7,0.6-1.7,1.4v3.5c0,0.7,0.8,1.4,1.7,1.4h5.5c0.8,0,1.5-0.5,1.7-1.1
							c0,0,0,0,0,0v-0.3v-0.1v-3.4C76.6,51.4,75.8,50.8,74.9,50.8z"/>
					</g>
					<g>
						<path class="st6" d="M80.3,44.3c-0.2-0.1-0.5,0.1-0.7,0.4c0-0.1,0-0.3,0-0.4c0-4.4-3.3-7.9-7.4-7.9c-4.1,0-7.4,3.5-7.4,7.9
							c0,0.1,0,0.3,0,0.4c-0.2-0.3-0.5-0.4-0.7-0.4c-0.5,0.1-0.7,1.4-0.4,2.7c0.3,1.4,1,2.3,1.5,2.2c0.2-0.1,0.3-0.2,0.4-0.5
							c1.3,3.3,3.7,6.2,6.5,6.2c2.8,0,5.3-3,6.5-6.2c0.1,0.3,0.2,0.5,0.4,0.5c0.5,0.1,1.2-0.8,1.5-2.2
							C80.9,45.7,80.8,44.5,80.3,44.3z"/>
					</g>
					<g>
						<path class="st7" d="M67.5,54.5c0,0,0.1,1.3,2.7,2c2.5,0.7,0.8,2.3,0.8,2.3l-2,0.4l-1.2-2.1l-0.5-1.6L67.5,54.5z"/>
					</g>
					<g>
						<path class="st7" d="M76.7,54.7c0,0-0.1,1.3-2.7,2c-2.5,0.7-0.8,2.3-0.8,2.3l2,0.4l1.2-2.1l0.5-1.6L76.7,54.7z"/>
					</g>
					<g>
						<polygon class="st0" points="66.8,53.9 64.5,55 69.2,62.6 						"/>
					</g>
					<g>
						<polygon class="st0" points="77.5,54.1 79.7,55.1 75,62.7 						"/>
					</g>
					<g>
						<polygon class="st8" points="71.8,59.7 70.6,64.6 74,64.6 72.6,59.7 						"/>
					</g>
					<g>
						<polygon class="st8" points="71.2,56.8 73.2,56.8 73.6,58.4 73.2,59.9 71.3,59.9 70.8,58.5 						"/>
					</g>
					<g>
						<path class="st9" d="M76.7,38c1-4.9-13.8-4.7-12,6.7l0.9,4.1l0.5-3.3l0.2-2.5c0,0,5,2.5,9.2-2.7c1.6,0.7,2.4,2,2.7,5.2
							l0.4,3.4l0.9-4.1C79.6,44.7,80.8,36.5,76.7,38z"/>
					</g>
				</g>
			</g>
			<g>
				<g>
					<g>
						<path class="st3" d="M51.2,67.5l8.7-13.9l-4.5-3.4l-11.3,0.8l-4.3,4l9.7,13.4C50.1,68.2,50.6,67.8,51.2,67.5z"/>
					</g>
					<g>
						<path class="st4" d="M43.2,51.9l-3.3,0.8c0,0-5.1,0.8-6,2.2c-1.7,1.1-1.8,14.4-1.5,14.5c0.3,0.1,15.8,0,15.8,0
							c0.6-0.4,1.2-0.8,1.8-1.1v0L43.2,51.9z"/>
					</g>
					<g>
						<path class="st4" d="M56.8,51.9l3.3,0.8c0,0,5.1,0.8,6,2.2c1.7,1.1,1.8,14.4,1.5,14.5c-0.3,0.1-20.3,0-20.3,0
							c-0.6-0.4,1.5-0.6,2.7-1.1v0L56.8,51.9z"/>
					</g>
					<g>
						<rect x="44.9" y="44.8" class="st5" width="10.1" height="7.9"/>
					</g>
					<g>
						<g>
							<path class="st6" d="M58.1,39.8c-0.6,6.1-5.2,10.6-8.2,10.6c-3.1,0-7.4-4.7-8.2-10.6C41.1,33.9,45.5,31,50,31
								C54.5,31,58.7,33.9,58.1,39.8z"/>
						</g>
						<g>
							<path class="st8" d="M41.5,33.8c0.7-2.3,2.9-5,5.7-5.7c2.4-0.6,6.6-1.3,10.3,2.4c0.5,0.5,1.5,4.2,1.4,5.3
								c-0.4,3.9-0.8,4.9-0.8,4.9l-1,0.4c0,0,0.5-1.3-0.2-3.2c-0.2-0.5-0.4-1-0.7-1.4c-4.1,2.3-10.5,2.7-13.4,2.8
								c-0.1,1,0.1,1.7,0.1,1.7l-1-0.4c0,0-0.1-0.3-0.3-1.3c-0.2,0-0.4,0-0.4,0S40.7,36.6,41.5,33.8z"/>
						</g>
						<g>
							<g>
								<path class="st6" d="M42.5,40.7c0.4,1.2,0.8,2.4,0.2,2.6c-0.5,0.2-1.6-0.7-2.1-1.9c-0.4-1.2-0.4-2.4,0.1-2.5
									C41.4,38.7,42.1,39.5,42.5,40.7z"/>
							</g>
						</g>
						<g>
							<g>
								<path class="st6" d="M57.4,40.7c-0.4,1.2-0.8,2.4-0.2,2.6c0.5,0.2,1.6-0.7,2.1-1.9c0.4-1.2,0.4-2.4-0.1-2.5
									C58.6,38.7,57.8,39.5,57.4,40.7z"/>
							</g>
						</g>
					</g>
					<g>
						<g>
							<polygon class="st8" points="52.5,54 50,56.1 47.4,54 50,51.9 							"/>
						</g>
						<g>
							<polygon class="st8" points="49.5,55.7 48,63 49.9,69 52.2,63 50.5,55.7 							"/>
						</g>
					</g>
					<g>
						<g>
							<path class="st7" d="M44.6,48.7l5.4,3.1l-1.8,3.8L44,51.8c0,0-1.1-0.3-0.7-0.8C43.6,50.5,44.5,50,44.6,48.7z"/>
						</g>
						<g>
							<path class="st7" d="M55.4,48.8L50,51.9l1.8,3.8l4.2-3.9c0,0,1.1-0.3,0.7-0.8C56.3,50.5,55.5,50,55.4,48.8z"/>
						</g>
					</g>
					<g>
						<polygon class="st0" points="50,68.2 43.8,50.4 41.7,52.1 39.5,53.3 42.2,57.7 43.4,57.7 42.6,60.3 						"/>
					</g>
					<g>
						<polygon class="st0" points="50,68.2 56.2,50.4 58.2,52 60.6,53.3 57.7,57.7 56.5,57.7 57.3,60.3 						"/>
					</g>
				</g>
			</g>
		</g>
	</g>
</g>
<rect x="19.6" y="-72.3" class="st1" width="27.9" height="27.9"/>
<rect x="61.7" y="-72.3" class="st10" width="27.9" height="27.9"/>
<rect x="102" y="-72.3" class="st11" width="27.9" height="27.9"/>
<rect x="138.8" y="-72.3" class="st12" width="27.9" height="27.9"/>
</svg>
