<?xml version="1.0" encoding="utf-8"?>
<!-- Generator: Adobe Illustrator 25.2.1, SVG Export Plug-In . SVG Version: 6.00 Build 0)  -->
<svg version="1.1" id="Capa_1" xmlns="http://www.w3.org/2000/svg" xmlns:xlink="http://www.w3.org/1999/xlink" x="0px" y="0px"
	 viewBox="0 0 100 100" style="enable-background:new 0 0 100 100;" xml:space="preserve">
<style type="text/css">
	.st0{fill:#B4171D;}
	.st1{fill:#F27320;}
	.st2{fill:#221E1F;}
	.st3{fill:#4F4F51;}
	.st4{fill:#FFBF31;}
	.st5{fill:#FF9D33;}
	.st6{fill:#161313;}
	.st7{fill:#DBD5D5;}
	.st8{fill:#D1AB86;}
	.st9{fill:#FFE2C2;}
	.st10{fill:#FFF8F8;}
	.st11{fill:#333030;}
	.st12{fill:#0C0A0A;}
	.st13{fill:#594A42;}
	.st14{fill:#FFFFFF;}
	.st15{fill:#9B8579;}
	.st16{fill:#726658;}
	.st17{fill:#F2F2F2;}
	.st18{fill:#F3701E;}
</style>
<rect x="19.6" y="-72.3" class="st0" width="27.9" height="27.9"/>
<rect x="61.7" y="-72.3" class="st1" width="27.9" height="27.9"/>
<rect x="102" y="-72.3" class="st2" width="27.9" height="27.9"/>
<rect x="138.8" y="-72.3" class="st3" width="27.9" height="27.9"/>
<g>
	<g>
		<path class="st4" d="M90.1,50c0,22.1-17.9,40.1-40.1,40.1C27.9,90.1,9.9,72.1,9.9,50C9.9,27.9,27.9,9.9,50,9.9
			C72.1,9.9,90.1,27.9,90.1,50z"/>
	</g>
	<g>
		<path class="st5" d="M89.8,54.7c-7-7.1-35-35.1-35.3-35.3c-1.2-1.6-3.3-1.9-4.5-1.9c-1.8,0-5.5,0.7-5.5,5.3c0,4.1,2.7,5.1,3.2,8.3
			c-0.3,0.1-0.6,0.3-0.6,0.6c0,0.3,0.3,0.6,0.7,0.6c0,0,0,0,0,0c-0.4,0-0.7,0.3-0.7,0.6c0,0.3,0.3,0.6,0.7,0.6
			c-0.4,0-0.7,0.3-0.7,0.6c0,0.3,0.3,0.6,0.7,0.6c0,0,0,0,0,0c-0.4,0-0.7,0.3-0.7,0.6c0,0.3,0.3,0.6,0.7,0.6h0.1c0,0.1,0,0.1,0,0.2
			c0,0.3,2.4,2.3,2.4,2.4c0,0.3,0.3,0.6,0.7,0.6H51c0,0.1,0,0.1,0,0.2c0,0.2,0.1,0.3,0.2,0.4c-1.5-0.1-2.9,0.1-3.9,0.4
			c-2.6,0.6-4.6,3-5.2,5.1c-0.3,1.1-0.3,2.3-0.3,3.2c-0.1-0.1-0.2-0.2-0.3-0.3c-1.3-1.5-2.8-2.2-4.8-2c-2.5,0.3-4,1.3-4.4,2.7
			c-1.2,0.3-1.9,1.4-1.9,3.7c-0.7,1.1-1,2.3-0.8,3.6c0,0.1,0,0.2,0,0.3c0,0.1,0,0.2,0,0.3c0,0,0,0,0,0c0,0.1,0,0.1,0,0.2
			c0.1,0.4,0.2,0.7,0.3,1c0.1,0.5,0.7,6.6-1.1,9c-1.4,0.9-2.5,1.9-2.9,3.7l-0.2,2.5L43,89.5c2.3,0.4,4.6,0.6,7,0.6
			C70.5,90.1,87.5,74.6,89.8,54.7z"/>
	</g>
	<g>
		<g>
			<g>
				<g>
					<g>
						<path class="st6" d="M30.1,58c0,0,0.7,6.7-1.1,9.1c-1.9,2.4,2.6,2,2.6,2l3.8-2.6l0.6-3.9l-3.1-5.3L30.1,58z"/>
					</g>
					<g>
						<path class="st6" d="M43.5,58c0,0-0.7,6.7,1.1,9.1c1.9,2.4-2.6,2-2.6,2l-3.8-2.6l-0.6-3.9l3.1-5.3L43.5,58z"/>
					</g>
					<g>
						<polygon class="st7" points="40.5,63.8 33.2,63.7 32.4,63.9 32.1,64.1 32.1,64.3 34.4,71.3 35.1,73.2 38.9,73.2 39.2,71.4 
							41.2,64.3 41.3,64.1 						"/>
					</g>
					<g>
						<path class="st6" d="M32.1,64.3c-2.1,2.7-5.4,3.1-6,6.4l-0.2,2.5h9.1l-0.7-1.9L32.1,64.3z"/>
					</g>
					<g>
						<path class="st6" d="M38.9,73.2h8.8l-0.2-2.5c-0.5-2.2-3-3.3-6.3-6.3l-2,7.1L38.9,73.2z"/>
					</g>
					<g>
						<path class="st8" d="M39.1,60.4h-0.7h-3.9c-0.8,0-1.4,0.6-1.4,1.3V65c0,0.7,0.6,1.3,1.4,1.3h4.6c0.7,0,1.3-0.4,1.4-1
							c0,0,0,0,0,0V65v-0.1v-3.2C40.5,61,39.9,60.4,39.1,60.4z"/>
					</g>
					<g>
						<path class="st9" d="M43.6,54.4c-0.2-0.1-0.4,0.1-0.6,0.3c0-0.1,0-0.3,0-0.4c0-4.1-2.8-7.4-6.2-7.4c-3.4,0-6.2,3.3-6.2,7.4
							c0,0.1,0,0.2,0,0.4c-0.2-0.3-0.4-0.4-0.6-0.3c-0.4,0.1-0.6,1.3-0.3,2.5c0.3,1.3,0.8,2.2,1.3,2.1c0.2,0,0.3-0.2,0.3-0.5
							c1,3.1,3.1,5.8,5.4,5.8c2.3,0,4.4-2.8,5.4-5.8c0.1,0.3,0.2,0.4,0.3,0.5c0.4,0.1,1-0.8,1.3-2.1C44.1,55.7,44,54.6,43.6,54.4z"
							/>
					</g>
					<g>
						<path class="st10" d="M33,64c0,0,0.1,1.2,2.2,1.8c2.1,0.6,0.7,2.1,0.7,2.1l-1.6,0.3l-1-1.9l-0.4-1.4L33,64z"/>
					</g>
					<g>
						<path class="st10" d="M40.6,64.2c0,0-0.1,1.2-2.2,1.8c-2.1,0.6-0.7,2.1-0.7,2.1l1.6,0.3l1-1.9l0.4-1.4L40.6,64.2z"/>
					</g>
					<g>
						<polygon class="st11" points="32.5,63.8 30.2,65.2 34.4,71.3 						"/>
					</g>
					<g>
						<polygon class="st11" points="41.2,63.8 43.6,65.6 39.2,71.4 						"/>
					</g>
					<g>
						<g>
							<polygon class="st12" points="36.5,68.7 35.4,73.1 38.5,73.1 37.2,68.7 							"/>
						</g>
						<g>
							<polygon class="st12" points="35.9,66.1 37.8,66.2 38.1,67.5 37.8,68.9 36,68.9 35.6,67.6 							"/>
						</g>
					</g>
					<g>
						<path class="st6" d="M43.4,53.1c0.1-1-0.1-2-0.5-3c-1.5-2.7-3.5-4.1-6.1-3.8c-2.5,0.3-4,1.3-4.4,2.7c-1.2,0.3-1.9,1.4-1.9,3.7
							c-0.8,1.2-1.1,2.6-0.8,4.1c0.4-0.5,0.9-0.5,1.3-0.1l0.4,1.9c-0.2-3.1,0.8-4.6,1.3-6.2c0.8,1.7,2.5,2.6,4.9,3
							c-0.8-0.7-1.2-1.5-0.8-2.4c0.3,1.1,1.2,1.8,2.4,2.2c-0.6-0.8-1.1-1.6-1-2.6c0.5,1.3,1.5,2.2,2.8,2.9c-0.6-0.8-1-1.5-0.7-2.5
							c1.3,1.8,1.7,3.7,2,5.6l0.4-1.9c0.4-0.4,0.9-0.3,1.3,0.2C44.2,55.4,44,54.2,43.4,53.1z"/>
					</g>
				</g>
			</g>
			<g>
				<g>
					<g>
						<polygon class="st7" points="66.3,63.7 58.3,63.6 57.4,63.8 57.1,64 57.2,64.2 59.7,71.2 60.4,73.1 64.5,73.1 64.9,71.3 
							67,64.2 67.1,63.9 						"/>
					</g>
					<g>
						<path class="st6" d="M57.2,64.2c-3.8,0.8-6.8,2.5-6.8,5.2l-0.3,3.6h10.3l-0.7-1.9L57.2,64.2z"/>
					</g>
					<g>
						<path class="st6" d="M64.5,73.1h9.9l-0.3-3.6c0-2.6-3.1-4.4-7.1-5.2l-2.2,7.1L64.5,73.1z"/>
					</g>
					<g>
						<path class="st8" d="M64.7,60.6H64h-4.2c-0.9,0-1.6,0.5-1.6,1.2v3.1c0,0.7,0.7,1.2,1.6,1.2h5c0.7,0,1.4-0.4,1.5-1c0,0,0,0,0,0
							v-0.2v-0.1v-3.1C66.3,61.1,65.6,60.6,64.7,60.6z"/>
					</g>
					<g>
						<path class="st9" d="M69.6,54.8c-0.2-0.1-0.4,0.1-0.6,0.3c0-0.1,0-0.2,0-0.4c0-3.9-3-7.1-6.7-7.1c-3.7,0-6.7,3.2-6.7,7.1
							c0,0.1,0,0.2,0,0.4c-0.2-0.2-0.4-0.4-0.6-0.3c-0.5,0.1-0.6,1.2-0.3,2.4c0.3,1.2,0.9,2.1,1.4,2c0.2,0,0.3-0.2,0.4-0.5
							c1.1,2.9,3.3,5.6,5.9,5.6c2.5,0,4.7-2.7,5.9-5.6c0.1,0.3,0.2,0.4,0.4,0.5c0.5,0.1,1.1-0.8,1.4-2C70.2,56,70,54.9,69.6,54.8z"
							/>
					</g>
					<g>
						<path class="st10" d="M58.2,63.9c0,0,0.1,1.2,2.4,1.8c2.3,0.6,0.8,2.1,0.8,2.1l-1.8,0.3l-1-1.9L58,64.8L58.2,63.9z"/>
					</g>
					<g>
						<path class="st10" d="M66.4,64.1c0,0-0.1,1.2-2.4,1.8c-2.3,0.6-0.8,2.1-0.8,2.1l1.8,0.3l1-1.9l0.4-1.4L66.4,64.1z"/>
					</g>
					<g>
						<polygon class="st11" points="57.5,63.4 55.4,64.3 59.7,71.2 						"/>
					</g>
					<g>
						<polygon class="st11" points="67.1,63.5 69.1,64.5 64.9,71.3 						"/>
					</g>
					<g>
						<polygon class="st12" points="62,68.6 60.9,73 64,73 62.7,68.6 						"/>
					</g>
					<g>
						<polygon class="st12" points="61.4,66 63.3,66 63.6,67.4 63.2,68.8 61.5,68.8 61.1,67.5 						"/>
					</g>
					<g>
						<path class="st12" d="M66.4,49.1c0.9-4.4-12.4-4.2-10.8,6l0.8,3.6l0.5-3l0.2-2.3c0,0,4.5,2.3,8.3-2.4c1.4,0.6,2.2,1.8,2.5,4.7
							l0.4,3l0.8-3.6C68.9,55.1,70.1,47.8,66.4,49.1z"/>
					</g>
				</g>
			</g>
			<g>
				<g>
					<g>
						<path class="st7" d="M50.8,75.6l7.8-12.5l-4.1-3l-10.1,0.7l-3.8,3.6l8.7,12.1C49.8,76.2,50.3,75.9,50.8,75.6z"/>
					</g>
					<g>
						<path class="st6" d="M64.2,64.3c-0.8-1.2-5.4-2-5.4-2l-2.9-0.7l-6.1,14.7l-6.1-14.7l-2.9,0.7c0,0-4.6,0.7-5.4,2
							c-1.5,1-1.6,12.9-1.3,13c0.3,0,11.6,0,13.8,0c2.9,0,17.5,0,17.7,0C65.8,77.2,65.7,65.2,64.2,64.3z"/>
					</g>
					<g>
						<rect x="45.2" y="55.2" class="st8" width="9.1" height="7.1"/>
					</g>
					<g>
						<g>
							<path class="st9" d="M57,50.7c-0.6,5.5-4.7,9.6-7.3,9.6c-2.8,0-6.7-4.2-7.3-9.6c-0.6-5.2,3.3-7.9,7.3-7.9
								C53.8,42.8,57.6,45.4,57,50.7z"/>
						</g>
						<g>
							<path class="st12" d="M42.1,45.3c0.6-2.1,2.6-4.5,5.2-5.1c2.1-0.5,6-1.1,9.2,2.2c0.4,0.4,0.9,1.5,0.9,2.6
								c0.3,0.5,0.4,1.2,0.3,2.2c-0.4,3.5-0.7,4.4-0.7,4.4l-0.9,0.4c0,0,0.4-1.2-0.1-2.8c-0.2-0.4-0.4-0.9-0.6-1.2
								c-3.7,2.1-9.5,2.5-12,2.5c-0.1,0.9,0.1,1.6,0.1,1.6l-0.9-0.4c0,0-0.1-0.3-0.2-1.1c-0.2,0-0.3,0-0.3,0S41.4,47.8,42.1,45.3z"
								/>
						</g>
						<g>
							<g>
								<path class="st9" d="M43,51.6c0.4,1.1,0.7,2.2,0.2,2.3c-0.5,0.2-1.5-0.6-1.9-1.7C41,51,41.1,50,41.5,49.9
									C42,49.7,42.7,50.5,43,51.6z"/>
							</g>
						</g>
						<g>
							<g>
								<path class="st9" d="M56.4,51.6c-0.4,1.1-0.7,2.2-0.2,2.3c0.5,0.2,1.5-0.6,1.9-1.7c0.4-1.1,0.3-2.1-0.1-2.3
									C57.4,49.7,56.8,50.5,56.4,51.6z"/>
							</g>
						</g>
					</g>
					<g>
						<g>
							<polygon class="st12" points="52,63.5 49.7,65.4 47.4,63.5 49.7,61.6 							"/>
						</g>
						<g>
							<polygon class="st12" points="49.3,65 48,71.5 49.6,76.9 51.7,71.5 50.1,65 							"/>
						</g>
					</g>
					<g>
						<g>
							<path class="st10" d="M44.8,58.8l4.9,2.8L48.1,65l-3.8-3.5c0,0-1-0.3-0.7-0.7C44,60.3,44.8,59.9,44.8,58.8z"/>
						</g>
						<g>
							<path class="st10" d="M54.6,58.8l-4.8,2.8l1.6,3.4l3.8-3.5c0,0,1-0.3,0.7-0.7C55.4,60.3,54.6,59.9,54.6,58.8z"/>
						</g>
					</g>
					<g>
						<polygon class="st11" points="49.7,76.2 44.2,60.2 42.3,61.8 40.3,62.9 42.7,66.8 43.8,66.8 43.1,69.1 						"/>
					</g>
					<g>
						<polygon class="st11" points="49.7,76.2 55.3,60.2 57.1,61.7 59.2,62.9 56.7,66.8 55.6,66.8 56.3,69.1 						"/>
					</g>
				</g>
			</g>
		</g>
		<g>
			<g>
				<path class="st13" d="M52.3,35.1c0,1-1.4,1.8-2.3,1.8c-0.9,0-2.3-0.8-2.3-1.8c0-1,1.4-1.8,2.3-1.8C50.9,33.2,52.3,34,52.3,35.1z
					"/>
			</g>
			<g>
				<path class="st14" d="M50,17.5c-1.8,0-5.5,0.7-5.5,5.3c0,4.5,3.2,5.2,3.2,9.2c0,4,2.3,0,2.3,0s2.3,4,2.3,0c0-4,3.2-4.7,3.2-9.2
					C55.5,18.2,51.8,17.5,50,17.5z"/>
			</g>
			<g>
				<path class="st15" d="M53,33c0,0.3-0.3,0.6-0.7,0.6h-4.5c-0.4,0-0.7-0.3-0.7-0.6l0,0c0-0.3,0.3-0.6,0.7-0.6h4.5
					C52.6,32.3,53,32.6,53,33L53,33z"/>
			</g>
			<g>
				<path class="st16" d="M53,34.2c0,0.3-0.3,0.6-0.7,0.6h-4.5c-0.4,0-0.7-0.3-0.7-0.6l0,0c0-0.3,0.3-0.6,0.7-0.6h4.5
					C52.6,33.6,53,33.9,53,34.2L53,34.2z"/>
			</g>
			<g>
				<path class="st15" d="M53,35.4c0,0.3-0.3,0.6-0.7,0.6h-4.5c-0.4,0-0.7-0.3-0.7-0.6l0,0c0-0.3,0.3-0.6,0.7-0.6h4.5
					C52.6,34.8,53,35.1,53,35.4L53,35.4z"/>
			</g>
			<g>
				<path class="st17" d="M54.8,22.4c0,2.4-2.2,4.4-4.9,4.4c-2.7,0-4.9-2-4.9-4.4c0-2.4,2.2-4.4,4.9-4.4C52.7,18,54.8,20,54.8,22.4z
					"/>
			</g>
			<g>
				<path class="st16" d="M53,31.7c0,0.3-0.3,0.6-0.7,0.6h-4.5c-0.4,0-0.7-0.3-0.7-0.6l0,0c0-0.3,0.3-0.6,0.7-0.6h4.5
					C52.6,31.1,53,31.4,53,31.7L53,31.7z"/>
			</g>
			<g>
				<g>
					<polygon class="st18" points="48.5,31.2 49.4,31.2 48.5,24.7 					"/>
				</g>
				<g>
					<path class="st18" d="M51.6,24.9c-0.1,0-0.2,0.1-0.2,0.2c0,0-0.1,0.1-0.1,0.1c-0.2-0.4-0.1-0.9-0.3-1.4L51,23.4l-0.2,0.4
						c-0.2,0.5-0.3,0.9-0.5,1.4l0-0.2c-0.1-0.3,0-0.7-0.1-1.1L50,23.4l-0.2,0.4c-0.2,0.4-0.3,0.8-0.4,1.2l-0.1-0.3l-0.1-0.3l0-0.2
						l0-0.1l0,0c0,0,0,0,0,0v0l0,0c0,0,0-0.1,0-0.1c0,0,0-0.1-0.1-0.1C49,24,49,24.1,48.9,24.1c0,0.1-0.1,0.2-0.1,0.3
						c-0.1,0.2-0.1,0.4-0.2,0.6c0.1-0.2,0.2-0.4,0.3-0.6c0-0.1,0.1-0.2,0.1-0.3c0,0,0-0.1,0-0.1c0,0,0,0,0,0.1l0-0.1
						c0,0.1,0,0.1,0,0.1l0,0l0,0.1l0,0.2l0.1,0.3l0.1,0.3c0,0.1,0,0.2,0.1,0.4l0.1,0.2l0.1-0.2c0.1-0.3,0.2-0.6,0.3-0.9
						c0,0.1,0,0.3,0,0.4c0.1,0.4,0.2,0.7,0.2,1.1l0.2,0.9l0.2-0.9c0.1-0.6,0.2-1.2,0.4-1.8c0,0.1,0,0.2,0.1,0.3
						c0.1,0.3,0.2,0.5,0.3,0.8l0.1,0.1l0-0.1C51.4,25.2,51.4,25,51.6,24.9l-0.8,6.3h0.9v-6.5L51.6,24.9z"/>
				</g>
			</g>
		</g>
	</g>
</g>
</svg>
