<?xml version="1.0" encoding="utf-8"?>
<!-- Generator: Adobe Illustrator 25.2.1, SVG Export Plug-In . SVG Version: 6.00 Build 0)  -->
<svg version="1.1" id="Capa_1" xmlns="http://www.w3.org/2000/svg" xmlns:xlink="http://www.w3.org/1999/xlink" x="0px" y="0px"
	 viewBox="0 0 100 100" style="enable-background:new 0 0 100 100;" xml:space="preserve">
<style type="text/css">
	.st0{fill:#B4171D;}
	.st1{fill:#F27320;}
	.st2{fill:#221E1F;}
	.st3{fill:#4F4F51;}
	.st4{fill:#FFFFFF;}
	.st5{fill:#C2C2C2;}
	.st6{fill:#F0F0F0;}
	.st7{fill:#FDBE00;}
	.st8{fill:#F3701E;}
	.st9{fill:#EA4033;}
	.st10{fill:#9FB603;}
	.st11{fill:#999999;}
	.st12{fill:#161313;}
	.st13{fill:#DBD5D5;}
	.st14{fill:#353333;}
	.st15{fill:#D1AB86;}
	.st16{fill:#FFE2C2;}
	.st17{fill:#0C0A0A;}
	.st18{fill:#FFF8F8;}
	.st19{fill:#333030;}
	.st20{fill:#E2C7B5;}
	.st21{fill:#E5C093;}
	.st22{fill:#D4DCDD;}
	.st23{fill:#916826;}
</style>
<rect x="19.6" y="-72.3" class="st0" width="27.9" height="27.9"/>
<rect x="61.7" y="-72.3" class="st1" width="27.9" height="27.9"/>
<rect x="102" y="-72.3" class="st2" width="27.9" height="27.9"/>
<rect x="138.8" y="-72.3" class="st3" width="27.9" height="27.9"/>
<g>
	<g>
		<path class="st2" d="M90.1,50c0,22.1-17.9,40.1-40.1,40.1c-22.1,0-40.1-18-40.1-40.1S27.9,9.9,50,9.9S90.1,27.9,90.1,50z"/>
	</g>
	<g>
		<path d="M88.5,38.7C84.9,35.1,76,26.2,75.9,26.1s-0.3-0.3-0.4-0.4s-0.3-0.3-0.4-0.4s-0.3-0.3-0.4-0.4s-0.3-0.3-0.4-0.4
			s-0.3-0.3-0.4-0.4s-0.3-0.3-0.4-0.4c-1-1.1-2.5-1.8-4.1-1.8h-2.7H52.3c-3.1,0-5.6,2.5-5.6,5.6v12.2c-0.1-0.1-0.2-0.2-0.4-0.4
			c-0.1-0.1-7.7-7.7-7.8-7.8c-0.1-0.1-0.3-0.3-0.4-0.4c-0.1-0.1-0.3-0.3-0.4-0.4c-0.1-0.1-0.3-0.3-0.4-0.4c-0.1-0.1-1-1-1.2-1.2
			c-0.1-0.1-0.3-0.3-0.4-0.4c-0.8-0.8-1.8-1.5-2.9-1.8c-1.8-0.4-5-1-7.8,1.8c-0.4,0.4-0.8,1.2-0.8,2.2c-0.2,0.4-0.4,1-0.3,1.8
			c0.1,1.2,0.2,2,0.3,2.6C24,35.1,23.8,35,23.6,35c-0.4,0.1-0.4,1-0.1,1.9c0.2,0.5,0.5,0.9,0.8,1.2c0.1,0.2,0.3,0.3,0.4,0.4
			c0.1,0.2,0.3,0.3,0.4,0.4c0.1,0.1,0.1,0.1,0.2,0.2c0.4,0.8,0.9,1.6,1.4,2.3v1.3l-0.3-0.2c0,0.6-0.3,1-0.6,1.3l-1.6,1.3l-0.3,0.1
			L23,45.6c0,0-3.8,0.6-4.5,1.7c-1.3,0.8-1.4,10.9-1.1,10.9c0,0,20.8,21.3,31.8,31.9c0.3,0,0.6,0,0.8,0c22.1,0,40.1-17.9,40.1-40.1
			C90.1,46.1,89.5,42.3,88.5,38.7z"/>
	</g>
	<g>
		<g>
			<g>
				<path class="st4" d="M42.3,45.4v-18c0-3.4,2.7-6.1,6.1-6.1h17.1c3.4,0,6.1,2.7,6.1,6.1v17.9H42.3V45.4z"/>
			</g>
			<g>
				<path class="st5" d="M65.5,21.9c3.1,0,5.6,2.5,5.6,5.6v17.4H42.8V27.4c0-3.1,2.5-5.6,5.6-5.6h17.1V21.9z M65.5,20.9H48.4
					c-3.6,0-6.6,3-6.6,6.6v17.4v1h1H71h1v-1V27.4C72.1,23.8,69.1,20.9,65.5,20.9L65.5,20.9z"/>
			</g>
		</g>
		<g>
			<g>
				<path class="st6" d="M48.4,21.9c-3.1,0-5.6,2.5-5.6,5.6v17.4h0.7l19.3-23C62.8,21.9,48.4,21.9,48.4,21.9z"/>
			</g>
		</g>
		<g>
			<g>
				<rect x="50.3" y="33" class="st7" width="2.2" height="10.1"/>
			</g>
			<g>
				<rect x="54.6" y="30.1" class="st8" width="2.2" height="13"/>
			</g>
			<g>
				<rect x="58.9" y="35" class="st9" width="2.2" height="8.1"/>
			</g>
			<g>
				<rect x="63.3" y="26.7" class="st10" width="2.2" height="16.3"/>
			</g>
		</g>
		<g>
			<rect x="47.6" y="25" class="st11" width="6.4" height="1.2"/>
		</g>
		<g>
			<polygon class="st12" points="40.2,49.1 50.8,43.3 52.6,46.4 40.2,56.2 36.3,51.5 			"/>
		</g>
		<g>
			<g>
				<g>
					<path class="st13" d="M31.6,56.8l6.6-10.5l-3.4-2.6l-8.5,0.6l-3.2,3l7.3,10.2C30.7,57.3,31.1,57,31.6,56.8z"/>
				</g>
				<g>
					<path class="st14" d="M25.5,44.9L23,45.6c0,0-3.8,0.6-4.5,1.7c-1.3,0.8-1.4,10.9-1.1,10.9s11.9,0,11.9,0
						c0.4-0.3,0.9-0.6,1.3-0.9l0,0L25.5,44.9z"/>
				</g>
				<g>
					<path class="st14" d="M35.8,44.9l2.5,0.6c0,0,3.8,0.6,4.5,1.7c1.3,0.8,1.4,10.9,1.1,10.9c-0.3,0-15.4,0-15.4,0
						c-0.4-0.3,1.2-0.5,2.1-0.9l0,0L35.8,44.9z"/>
				</g>
				<g>
					<rect x="26.8" y="39.6" class="st15" width="7.6" height="6"/>
				</g>
				<g>
					<g>
						<path class="st16" d="M36.8,35.8c-0.5,4.6-4,8-6.2,8c-2.4,0-5.6-3.5-6.2-8c-0.5-4.4,2.8-6.7,6.2-6.7S37.3,31.4,36.8,35.8z"/>
					</g>
					<g>
						<path class="st17" d="M37.2,31.2c-0.5-1.8-2.2-3.8-4.3-4.3c-1.8-0.4-5-1-7.8,1.8c-0.4,0.4-0.8,1.2-0.8,2.2
							c-0.2,0.4-0.4,1-0.3,1.8c0.3,2.9,0.6,3.7,0.6,3.7l0.7,0.3c0,0-0.4-1,0.1-2.4c0.1-0.4,0.3-0.7,0.5-1.1c3.1,1.7,8,2.1,10.1,2.1
							c0.1,0.8-0.1,1.3-0.1,1.3l0.7-0.3c0,0,0.1-0.3,0.2-1c0.2,0,0.3,0,0.3,0S37.8,33.3,37.2,31.2z"/>
					</g>
					<g>
						<g>
							<path class="st16" d="M25,36.5c0.3,0.9,0.6,1.8,0.2,1.9c-0.4,0.1-1.2-0.5-1.6-1.5c-0.3-0.9-0.3-1.8,0.1-1.9
								C24.1,34.9,24.7,35.6,25,36.5z"/>
						</g>
					</g>
					<g>
						<g>
							<path class="st16" d="M36.2,36.5c-0.3,0.9-0.6,1.8-0.2,1.9c0.4,0.1,1.2-0.5,1.6-1.5c0.3-0.9,0.3-1.8-0.1-1.9
								C37.1,34.9,36.6,35.6,36.2,36.5z"/>
						</g>
					</g>
				</g>
				<g>
					<g>
						<polygon class="st17" points="32.5,46.6 30.6,48.2 28.7,46.6 30.6,44.9 						"/>
					</g>
					<g>
						<polygon class="st17" points="30.3,47.8 29.1,53.3 32.3,53.3 31,47.8 						"/>
					</g>
				</g>
				<g>
					<g>
						<path class="st18" d="M26.5,42.6l4.1,2.4l-1.3,2.9l-3.2-3c0,0-0.8-0.2-0.6-0.6C25.8,43.9,26.5,43.5,26.5,42.6z"/>
					</g>
					<g>
						<path class="st18" d="M34.7,42.6L30.6,45l1.3,2.9l3.2-2.9c0,0,0.8-0.2,0.6-0.6C35.4,43.9,34.8,43.5,34.7,42.6z"/>
					</g>
				</g>
				<g>
					<polygon class="st19" points="30.6,57.3 25.9,43.8 24.4,45.1 22.7,46 24.7,49.4 25.7,49.3 25.1,51.3 					"/>
				</g>
				<g>
					<polygon class="st19" points="30.6,57.3 35.3,43.8 36.9,45 38.7,46 36.5,49.4 35.6,49.3 36.2,51.3 					"/>
				</g>
			</g>
		</g>
		<g>
			<path class="st20" d="M51.5,42.8c-0.9,0.3-1.4,1.1-1.1,1.9l0.3,0.9c0.3,0.7,1.2,1.1,2,0.8l0,0c0.9-0.3,1.4-1.1,1.1-1.9l-0.3-0.9
				C53.3,42.8,52.4,42.5,51.5,42.8L51.5,42.8z"/>
		</g>
		<g>
			<polygon class="st17" points="52.6,44.6 60.1,35.5 51.9,43.6 			"/>
		</g>
		<g>
			<g>
				<g>
					<path class="st21" d="M53.5,57.3c-0.3,0.7-0.5,1.5-0.2,1.6s0.9-0.5,1.2-1.2s0.2-1.4,0-1.5C54.2,56.1,53.7,56.6,53.5,57.3z"/>
				</g>
				<g>
					<rect x="45.8" y="59.8" class="st15" width="6.2" height="4.8"/>
				</g>
				<g>
					<path class="st21" d="M44.4,57.4c0.2,0.7,0.4,1.5,0.1,1.6c-0.3,0.1-1-0.4-1.2-1.2c-0.2-0.7-0.2-1.5,0.1-1.6
						C43.7,56.1,44.2,56.6,44.4,57.4z"/>
				</g>
				<g>
					<path class="st14" d="M58.8,65.3c-0.6-0.9-3.7-1.3-3.7-1.3l-2-0.5H50h-1.4h-3.9l-2,0.5c0,0-3.1,0.5-3.7,1.3c-1,0.7-1.1,7-0.9,7
						c0.2,0,3.1,0.5,3.1,0.5l0,0l7.6-0.2l7.6,0.2l0,0c0,0,2.9-0.4,3.1-0.5C59.9,72.3,59.8,66,58.8,65.3z"/>
				</g>
				<g>
					<path class="st15" d="M52.1,61.2c-1,1.3-2.2,2.1-3.2,2.1c-0.9,0-2.1-0.7-3.1-2C48.3,60.5,51.2,61,52.1,61.2z"/>
				</g>
				<g>
					<path class="st19" d="M54,52.8c0-0.7-0.3-1.4-0.6-1.7c-2.2-2.2-4.8-1.8-6.2-1.5c-1.7,0.4-3.1,2.1-3.5,3.5c-0.5,1.7,0,3.5,0,3.5
						h0.1c0,0.1,0,0.1,0,0.2c0.2,1.8,0.9,3.4,1.9,4.5c2.5-0.8,5.5-0.3,6.3-0.1c0.8-1,1.4-2.4,1.7-3.9l0,0c0,0,0.2-0.7,0.5-3
						C54.4,53.6,54.2,53.1,54,52.8z"/>
				</g>
				<g>
					<polygon class="st22" points="44.7,63.5 53.1,63.5 52.3,62.1 45.5,62.1 					"/>
				</g>
			</g>
			<g>
				<g>
					<path class="st21" d="M74.1,57.3c-0.3,0.7-0.5,1.5-0.2,1.6s0.9-0.5,1.2-1.2c0.3-0.7,0.2-1.4,0-1.5
						C74.8,56.1,74.4,56.6,74.1,57.3z"/>
				</g>
				<g>
					<rect x="66.5" y="59.8" class="st15" width="6.2" height="4.8"/>
				</g>
				<g>
					<path class="st21" d="M65,57.4c0.2,0.7,0.4,1.5,0.1,1.6s-1-0.4-1.2-1.2c-0.2-0.7-0.2-1.5,0.1-1.6C64.4,56.1,64.8,56.6,65,57.4z
						"/>
				</g>
				<g>
					<path class="st14" d="M79.4,65.3c-0.6-0.9-3.7-1.3-3.7-1.3l-2-0.5h-3.1h-1.4h-3.9l-2,0.5c0,0-3.1,0.5-3.7,1.3
						c-1,0.7-1.1,7-0.9,7c0.2,0,3.1,0.5,3.1,0.5l0,0l7.6-0.2l7.6,0.2l0,0c0,0,2.9-0.4,3.1-0.5C80.5,72.3,80.5,66,79.4,65.3z"/>
				</g>
				<g>
					<path class="st15" d="M72.7,61.2c-1,1.3-2.2,2.1-3.2,2.1c-0.9,0-2.1-0.7-3.1-2C68.9,60.5,71.9,61,72.7,61.2z"/>
				</g>
				<g>
					<path class="st23" d="M74.7,52.8c0-0.7-0.3-1.4-0.6-1.7c-2.2-2.2-4.8-1.8-6.2-1.5c-1.7,0.4-3.1,2.1-3.5,3.5
						c-0.5,1.7,0.1,3.5,0.2,3.5c0,0.1,0,0.1,0,0.2c0.2,1.8,0.9,3.4,1.9,4.5c2.5-0.8,5.5-0.3,6.3-0.1c0.8-1,1.4-2.4,1.7-3.9l0,0
						c0,0,0.2-0.7,0.5-3C75,53.6,74.9,53.1,74.7,52.8z"/>
				</g>
				<g>
					<polygon class="st22" points="65.4,63.5 73.7,63.5 73,62.1 66.1,62.1 					"/>
				</g>
			</g>
		</g>
	</g>
</g>
</svg>
