<?xml version="1.0" encoding="utf-8"?>
<!-- Generator: Adobe Illustrator 25.2.1, SVG Export Plug-In . SVG Version: 6.00 Build 0)  -->
<svg version="1.1" id="Capa_1" xmlns="http://www.w3.org/2000/svg" xmlns:xlink="http://www.w3.org/1999/xlink" x="0px" y="0px"
	 viewBox="0 0 100 100" style="enable-background:new 0 0 100 100;" xml:space="preserve">
<style type="text/css">
	.st0{fill:#B4171D;}
	.st1{fill:#F27320;}
	.st2{fill:#221E1F;}
	.st3{fill:#4F4F51;}
	.st4{fill:#E2641E;}
	.st5{fill:#0C0A0A;}
	.st6{fill:#DBD5D5;}
	.st7{fill:#161313;}
	.st8{fill:#D1AB86;}
	.st9{fill:#FFE2C2;}
	.st10{fill:#FFF8F8;}
	.st11{fill:#333030;}
	.st12{fill:#FFFFFF;}
	.st13{fill:#E5C093;}
	.st14{fill:#D4DCDD;}
</style>
<rect x="19.6" y="-72.3" class="st0" width="27.9" height="27.9"/>
<rect x="61.7" y="-72.3" class="st1" width="27.9" height="27.9"/>
<rect x="102" y="-72.3" class="st2" width="27.9" height="27.9"/>
<rect x="138.8" y="-72.3" class="st3" width="27.9" height="27.9"/>
<g>
	<g>
		
			<ellipse transform="matrix(6.015921e-02 -0.9982 0.9982 6.015921e-02 -2.9175 96.9015)" class="st1" cx="50" cy="50" rx="40.1" ry="40.1"/>
	</g>
	<g>
		<path class="st4" d="M90,47.3C86.1,43.5,71.7,29,71.5,28.9c-0.2-0.2-0.4-0.4-0.6-0.6c-0.9-1.1-2.8-1.9-5-1.9
			c-3.1,0-5.6,1.5-5.6,3.4c0,0.8,0.4,1.5,1.1,2.1c0.2,0.2,5.7,5.7,5.9,5.9c0,0,0.1,0.1,0.1,0.1c-0.8,0.7-1.5,1.5-2,2.5
			c-0.1-0.1-0.2-0.2-0.3-0.2c0-0.1-0.1-0.1-0.1-0.2c-0.1-0.1-6.4-6.4-6.5-6.5c-0.1-0.1-1.1-1.1-1.2-1.2c-0.1-0.2-0.3-0.3-0.4-0.4
			c0-0.1-0.1-0.1-0.1-0.2c-3.9-4-8.6-3.3-11.1-2.6c-1.4,0.3-2.6,1.2-3.7,2.2c-0.2-0.2-2.7-2.8-2.9-2.9c-0.9-1.1-2.8-1.9-5-1.9
			c-3.1,0-5.6,1.5-5.6,3.4c0,0.8,0.4,1.5,1.2,2.1c0.2,0.2,0.4,0.4,0.6,0.6c0.2,0.2,0.4,0.4,0.6,0.6c0.1,0.1,0.1,0.2,0.2,0.2
			c-0.4,0.6-1,1.2-2,1.3c0,0,8.8,8.3,9.5,8.2c0,0.1,0,0.3,0.1,0.4c-0.1,0-0.1,0.1-0.2,0.1c-1.1-0.8-6.4-5.2-6.6-5.4
			c-1.4-1.5-3.1-2.3-5.1-2c-2.8,0.4-4.4,1.4-4.9,3c-1.3,0.3-2.1,1.5-2.1,4.1c-0.9,1.4-1.2,2.9-0.8,4.6c0,0,0,0,0,0
			c0,0.1,0,0.1,0,0.2c0.1,0.4,0.2,0.8,0.4,1.2c0.1,0.5,0.7,7.4-1.2,10c-1.5,1-2.8,2.1-3.2,4.1l-0.2,2.8l22.9,22.3
			c3.9,1.3,8.1,2,12.5,2c22.1,0,40.1-17.9,40.1-40.1C90.1,49.1,90,48.2,90,47.3z"/>
	</g>
	<g>
		<g>
			<g>
				<g>
					<g>
						<g>
							<path class="st5" d="M19.2,48.9c0,0,0.8,7.5-1.3,10.1c-2.1,2.6,2.9,2.2,2.9,2.2l4.2-2.9l0.7-4.3l-3.5-5.9L19.2,48.9z"/>
						</g>
						<g>
							<path class="st5" d="M34.2,48.9c0,0-0.8,7.5,1.3,10.1c2.1,2.6-2.9,2.2-2.9,2.2l-4.2-2.9L27.6,54l3.5-5.9L34.2,48.9z"/>
						</g>
						<g>
							<polygon class="st6" points="30.8,55.4 22.7,55.2 21.7,55.5 21.4,55.7 21.5,55.9 24,63.7 24.8,65.8 29,65.8 29.4,63.8 
								31.6,56 31.7,55.6 							"/>
						</g>
						<g>
							<path class="st7" d="M21.5,55.9c-2.3,3-6,3.4-6.7,7.1l-0.2,2.8h10.2L24,63.7L21.5,55.9z"/>
						</g>
						<g>
							<path class="st7" d="M29,65.8h9.8L38.6,63c-0.5-2.5-3.3-3.7-7-7l-2.2,7.9L29,65.8z"/>
						</g>
						<g>
							<path class="st8" d="M29.3,51.6h-0.8h-4.3c-0.9,0-1.6,0.6-1.6,1.4v3.6c0,0.8,0.7,1.4,1.6,1.4h5.1c0.8,0,1.4-0.5,1.6-1.1
								c0,0,0,0,0,0v-0.3v-0.1V53C30.9,52.3,30.1,51.6,29.3,51.6z"/>
						</g>
						<g>
							<path class="st9" d="M34.2,44.9c-0.2-0.1-0.4,0.1-0.6,0.4c0-0.1,0-0.3,0-0.4c0-4.5-3.1-8.2-6.9-8.2c-3.8,0-6.9,3.7-6.9,8.2
								c0,0.1,0,0.3,0,0.4c-0.2-0.3-0.4-0.4-0.6-0.4c-0.5,0.1-0.6,1.4-0.3,2.8c0.3,1.4,0.9,2.4,1.4,2.3c0.2-0.1,0.3-0.2,0.4-0.5
								c1.2,3.4,3.4,6.5,6,6.5s4.9-3.1,6-6.5c0.1,0.3,0.2,0.5,0.4,0.5c0.5,0.1,1.1-0.9,1.4-2.3C34.8,46.4,34.7,45.1,34.2,44.9z"/>
						</g>
						<g>
							<path class="st10" d="M22.5,55.6c0,0,0.1,1.3,2.5,2c2.3,0.7,0.8,2.3,0.8,2.3l-1.8,0.4l-1.1-2.1l-0.5-1.6L22.5,55.6z"/>
						</g>
						<g>
							<path class="st10" d="M30.9,55.8c0,0-0.1,1.3-2.5,2c-2.3,0.7-0.8,2.3-0.8,2.3l1.8,0.4l1.1-2.1l0.5-1.6L30.9,55.8z"/>
						</g>
						<g>
							<polygon class="st11" points="21.9,55.4 19.3,56.9 24,63.7 							"/>
						</g>
						<g>
							<polygon class="st11" points="31.6,55.4 34.2,57.3 29.4,63.8 							"/>
						</g>
						<g>
							<g>
								<polygon class="st5" points="26.4,60.8 25.1,65.8 28.6,65.8 27.2,60.8 								"/>
							</g>
							<g>
								<polygon class="st5" points="25.7,58 27.8,58 28.2,59.5 27.7,61 25.8,61 25.3,59.6 								"/>
							</g>
						</g>
						<g>
							<path class="st5" d="M34,43.4c0.1-1.1-0.1-2.2-0.6-3.3c-1.7-3-3.9-4.6-6.8-4.3c-2.8,0.4-4.4,1.4-4.9,3
								c-1.3,0.3-2.1,1.5-2.1,4.1c-0.9,1.4-1.2,2.9-0.8,4.6c0.5-0.5,0.9-0.6,1.4-0.2l0.4,2.1c-0.2-3.4,0.9-5.1,1.4-6.9
								c0.9,1.9,2.8,2.9,5.4,3.3c-0.9-0.8-1.4-1.6-0.9-2.6c0.4,1.3,1.3,2,2.6,2.4c-0.7-0.8-1.2-1.8-1.2-2.9c0.6,1.5,1.7,2.5,3.1,3.3
								c-0.6-0.8-1.1-1.7-0.8-2.7c1.5,2,1.9,4.1,2.3,6.2l0.4-2.1c0.5-0.4,1-0.3,1.4,0.2C34.9,46.1,34.7,44.7,34,43.4z"/>
						</g>
					</g>
				</g>
				<g>
					<g>
						<path class="st12" d="M34,26.4c-3.1,0-5.6,1.5-5.6,3.4c0,1.3,1.1,2.4,2.8,2.9c-0.3,0.8-0.9,1.7-2.3,1.9c0,0,2.4,0.4,3.6-1.5
							c0.5,0.1,0.9,0.1,1.4,0.1c3.1,0,5.6-1.5,5.6-3.4C39.6,27.9,37.1,26.4,34,26.4z"/>
					</g>
					<g>
						<g>
							<path class="st1" d="M36.2,29.8c0,0.4,0.3,0.6,0.6,0.6c0.4,0,0.6-0.3,0.6-0.6c0-0.4-0.3-0.6-0.6-0.6
								C36.5,29.2,36.2,29.5,36.2,29.8z"/>
						</g>
						<g>
							<path class="st1" d="M33.6,29.8c0,0.4,0.3,0.6,0.6,0.6c0.4,0,0.6-0.3,0.6-0.6c0-0.4-0.3-0.6-0.6-0.6
								C33.9,29.2,33.6,29.5,33.6,29.8z"/>
						</g>
						<g>
							<path class="st1" d="M31,29.8c0,0.4,0.3,0.6,0.6,0.6c0.4,0,0.6-0.3,0.6-0.6c0-0.4-0.3-0.6-0.6-0.6C31.3,29.2,31,29.5,31,29.8
								z"/>
						</g>
					</g>
				</g>
			</g>
			<g>
				<g>
					<g>
						<g>
							<polygon class="st6" points="76.8,55.3 68,55.1 67,55.4 66.6,55.6 66.7,55.8 69.4,63.6 70.2,65.7 74.8,65.7 75.2,63.7 
								77.6,55.8 77.7,55.5 							"/>
						</g>
						<g>
							<path class="st7" d="M66.7,55.8c-4.2,0.8-7.5,2.7-7.5,5.8l-0.3,4h11.4l-0.8-2.1L66.7,55.8z"/>
						</g>
						<g>
							<path class="st7" d="M74.8,65.7h11l-0.3-4c0-2.9-3.5-4.9-7.9-5.8l-2.4,7.9L74.8,65.7z"/>
						</g>
						<g>
							<path class="st8" d="M75.1,51.8h-0.9h-4.7c-1,0-1.7,0.6-1.7,1.4v3.5c0,0.7,0.8,1.4,1.7,1.4h5.5c0.8,0,1.5-0.5,1.7-1.1
								c0,0,0,0,0,0v-0.3v-0.1v-3.4C76.8,52.4,76.1,51.8,75.1,51.8z"/>
						</g>
						<g>
							<path class="st9" d="M80.5,45.3c-0.2-0.1-0.5,0.1-0.7,0.4c0-0.1,0-0.3,0-0.4c0-4.4-3.3-7.9-7.4-7.9c-4.1,0-7.4,3.5-7.4,7.9
								c0,0.1,0,0.3,0,0.4c-0.2-0.3-0.5-0.4-0.7-0.4c-0.5,0.1-0.7,1.4-0.4,2.7c0.3,1.4,1,2.3,1.5,2.2c0.2-0.1,0.3-0.2,0.4-0.5
								c1.3,3.3,3.7,6.2,6.5,6.2c2.8,0,5.3-3,6.5-6.2c0.1,0.3,0.2,0.5,0.4,0.5c0.5,0.1,1.2-0.8,1.5-2.2C81.2,46.7,81,45.5,80.5,45.3
								z"/>
						</g>
						<g>
							<path class="st10" d="M67.8,55.5c0,0,0.1,1.3,2.7,2c2.5,0.7,0.8,2.3,0.8,2.3l-2,0.4l-1.2-2.1l-0.5-1.6L67.8,55.5z"/>
						</g>
						<g>
							<path class="st10" d="M76.9,55.7c0,0-0.1,1.3-2.7,2c-2.5,0.7-0.8,2.3-0.8,2.3l2,0.4l1.2-2.1l0.5-1.6L76.9,55.7z"/>
						</g>
						<g>
							<polygon class="st11" points="67,54.9 64.8,56 69.4,63.6 							"/>
						</g>
						<g>
							<polygon class="st11" points="77.7,55.1 79.9,56.1 75.2,63.7 							"/>
						</g>
						<g>
							<polygon class="st5" points="72,60.7 70.8,65.6 74.2,65.6 72.8,60.7 							"/>
						</g>
						<g>
							<polygon class="st5" points="71.4,57.8 73.5,57.8 73.8,59.4 73.4,60.9 71.5,60.9 71,59.5 							"/>
						</g>
						<g>
							<path class="st5" d="M76.9,39c1-4.9-13.8-4.7-12,6.7l0.9,4.1l0.5-3.3l0.2-2.5c0,0,5,2.5,9.2-2.7c1.6,0.7,2.4,2,2.7,5.2
								l0.4,3.4l0.9-4.1C79.8,45.7,81.1,37.5,76.9,39z"/>
						</g>
					</g>
				</g>
				<g>
					<g>
						<path class="st12" d="M65.9,26.4c3.1,0,5.6,1.5,5.6,3.4c0,1.3-1.1,2.4-2.8,2.9c0.3,0.8,0.9,1.7,2.3,1.9c0,0-2.4,0.4-3.6-1.5
							c-0.5,0.1-0.9,0.1-1.4,0.1c-3.1,0-5.6-1.5-5.6-3.4C60.3,27.9,62.8,26.4,65.9,26.4z"/>
					</g>
					<g>
						<g>
							<path class="st1" d="M63.7,29.8c0,0.4-0.3,0.6-0.6,0.6c-0.4,0-0.6-0.3-0.6-0.6c0-0.4,0.3-0.6,0.6-0.6
								C63.4,29.2,63.7,29.5,63.7,29.8z"/>
						</g>
						<g>
							<path class="st1" d="M66.3,29.8c0,0.4-0.3,0.6-0.6,0.6c-0.4,0-0.6-0.3-0.6-0.6c0-0.4,0.3-0.6,0.6-0.6
								C66,29.2,66.3,29.5,66.3,29.8z"/>
						</g>
						<g>
							<path class="st1" d="M68.9,29.8c0,0.4-0.3,0.6-0.6,0.6c-0.4,0-0.6-0.3-0.6-0.6c0-0.4,0.3-0.6,0.6-0.6
								C68.6,29.2,68.9,29.5,68.9,29.8z"/>
						</g>
					</g>
				</g>
			</g>
		</g>
		<g>
			<g>
				<path class="st13" d="M56.9,43c-0.5,1.3-0.8,2.6-0.3,2.8c0.5,0.2,1.7-0.8,2.1-2.2c0.5-1.3,0.4-2.6-0.1-2.7
					C58.2,40.7,57.4,41.7,56.9,43z"/>
			</g>
			<g>
				<rect x="43.2" y="47.5" class="st8" width="11.1" height="8.7"/>
			</g>
			<g>
				<path class="st13" d="M40.6,43.1c0.4,1.3,0.7,2.6,0.2,2.8c-0.5,0.2-1.7-0.8-2.1-2.1c-0.4-1.3-0.3-2.6,0.2-2.8
					C39.4,40.8,40.2,41.7,40.6,43.1z"/>
			</g>
			<g>
				<path class="st5" d="M66.4,57.3c-1-1.5-6.6-2.4-6.6-2.4L56.2,54h-5.5h-2.5h-7l-3.6,0.9c0,0-5.6,0.9-6.6,2.4
					c-1.8,1.2-2,12.6-1.6,12.6c0.4,0.1,5.6,0.8,5.6,0.8l0,0l13.7-0.3l13.7,0.3l0,0c0,0,5.2-0.8,5.6-0.8
					C68.4,69.9,68.3,58.5,66.4,57.3z"/>
			</g>
			<g>
				<path class="st8" d="M54.4,50c-1.8,2.3-3.9,3.7-5.7,3.7c-1.7,0-3.8-1.3-5.6-3.6C47.6,48.7,52.9,49.6,54.4,50z"/>
			</g>
			<g>
				<path class="st5" d="M57.9,34.8c0-1.3-0.6-2.6-1.1-3.1c-3.9-4-8.6-3.3-11.1-2.6c-3.1,0.8-5.5,3.7-6.2,6.3c-0.9,3.1,0,6.2,0,6.2
					s0.1,0,0.3,0c0,0.1,0,0.2,0,0.4c0.3,3.2,1.7,6.1,3.4,8.1c4.5-1.4,9.8-0.5,11.3-0.1c1.4-1.8,2.6-4.3,3.1-7l0,0
					c0,0,0.4-1.2,0.8-5.4C58.5,36.4,58.3,35.5,57.9,34.8z"/>
			</g>
			<g>
				<polygon class="st14" points="41.3,54 56.2,54 54.9,51.5 42.6,51.5 				"/>
			</g>
		</g>
	</g>
</g>
</svg>
